<?xml version="1.0" standalone="no"?>
<!DOCTYPE svg PUBLIC "-//W3C//DTD SVG 20010904//EN"
 "http://www.w3.org/TR/2001/REC-SVG-20010904/DTD/svg10.dtd">
<svg version="1.0" xmlns="http://www.w3.org/2000/svg"
 width="460.000000pt" height="460.000000pt" viewBox="0 0 460.000000 460.000000"
 preserveAspectRatio="xMidYMid meet">
<metadata>
Created by potrace 1.14, written by Peter Selinger 2001-2017
</metadata>
<g transform="translate(0.000000,460.000000) scale(0.100000,-0.100000)"
fill="#000000" stroke="none">
<path d="M1028 4308 l-3 -143 -127 -3 -128 -3 0 -1004 0 -1004 -122 -3 -123
-3 -3 -287 -2 -288 -125 0 -125 0 2 -287 3 -288 123 -3 122 -3 0 -139 0 -140
255 0 255 0 0 -145 0 -145 250 0 249 0 6 33 c3 17 5 82 3 142 l-3 110 -252 3
-253 2 0 145 0 145 315 0 315 0 0 139 c0 87 4 142 10 146 6 4 121 3 255 -1
l245 -7 0 -144 0 -144 123 3 122 3 3 142 3 143 67 0 c37 0 151 3 255 7 l187 6
0 -146 0 -147 315 0 315 0 0 -145 0 -145 255 0 255 0 0 140 0 140 120 0 120 0
0 290 0 290 -120 0 -120 0 0 290 0 290 -130 0 -130 0 0 1005 0 1005 -125 0
-125 0 0 145 0 145 -130 0 -130 0 0 -145 0 -145 -125 0 -125 0 0 -145 0 -145
-120 0 -120 0 0 -140 0 -140 -510 0 -510 0 0 140 0 140 -125 0 -125 0 0 145 0
145 -125 0 -125 0 0 145 0 145 -130 0 -129 0 -3 -142z"/>
<path d="M3050 565 l0 -145 255 0 255 0 0 139 0 138 -37 7 c-21 3 -136 6 -255
6 l-218 0 0 -145z"/>
<path d="M1540 270 l0 -140 755 0 755 0 0 140 0 140 -755 0 -755 0 0 -140z"/>
</g>
</svg>
